<svg width="24" height="24" viewBox="0 0 24 24" fill="none" xmlns="http://www.w3.org/2000/svg">
<path opacity="0.4" d="M8.03175 3H13.4921C14.3286 3 15.1309 3.33235 15.7225 3.92395L19.076 7.2775C19.6676 7.8691 20 8.6714 20 9.5079V16.9841C20 19.746 17.746 22 14.9841 22H8.03175C5.9854 22 4.27765 20.4603 4.06748 18.4247C4.02683 18.031 4 17.5655 4 17.0159V7C4 4.79365 5.79365 3 8.03175 3Z" fill="#637381"/>
<path d="M14.25 3.09375C14.8024 3.24685 15.3102 3.5374 15.7225 3.94975L19.0502 7.2775C19.4626 7.68985 19.7532 8.19765 19.9062 8.75H16.75C15.3693 8.75 14.25 7.6307 14.25 6.25V3.09375Z" fill="#637381"/>
<path d="M8 13C8 12.4477 8.4477 12 9 12H15C15.5523 12 16 12.4477 16 13C16 13.5523 15.5523 14 15 14H9C8.4477 14 8 13.5523 8 13Z" fill="#637381"/>
<path d="M8 17C8 16.4477 8.4477 16 9 16H12.5C13.0523 16 13.5 16.4477 13.5 17C13.5 17.5523 13.0523 18 12.5 18H9C8.4477 18 8 17.5523 8 17Z" fill="#637381"/>
</svg>
