<svg width="24" height="24" viewBox="0 0 24 24" fill="none" xmlns="http://www.w3.org/2000/svg">
<path opacity="0.4" d="M6.22222 3.06305C7.67993 3.01885 9.593 3 12 3C14.407 3 16.3201 3.01885 17.7778 3.06305C19.5689 3.11735 20.8827 4.43112 20.937 6.22222C20.9811 7.67992 21 9.593 21 12C21 14.407 20.9811 16.3201 20.937 17.7778C20.8827 19.5689 19.5689 20.8827 17.7778 20.937C16.3201 20.9811 14.407 21 12 21C9.593 21 7.67993 20.9811 6.22222 20.937C4.43112 20.8827 3.11735 19.5689 3.06305 17.7778C3.01885 16.3201 3 14.407 3 12C3 9.593 3.01885 7.67992 3.06305 6.22222C3.11735 4.43112 4.43112 3.11735 6.22222 3.06305Z" fill="#637381"/>
<path d="M11.9998 5.75C12.6902 5.75 13.2498 6.30965 13.2498 7V12.3447L16.4051 15.5C16.8932 15.9882 16.8932 16.7796 16.4051 17.2678C15.9169 17.756 15.1255 17.756 14.6373 17.2678L11.116 13.7465C10.8816 13.5121 10.7498 13.1942 10.7498 12.8627V7C10.7498 6.30965 11.3095 5.75 11.9998 5.75Z" fill="#637381"/>
<path d="M6.96992 8.00028C7.45808 7.51213 8.24953 7.51213 8.73769 8.00028L10.1768 9.43938C10.665 9.92755 10.665 10.719 10.1768 11.2072C9.68865 11.6953 8.8972 11.6953 8.40903 11.2072L6.96992 9.76804C6.48177 9.27988 6.48177 8.48843 6.96992 8.00028Z" fill="#637381"/>
<path d="M15.2623 8.00028C15.7505 7.51213 16.5419 7.51213 17.0301 8.00028C17.5182 8.48843 17.5182 9.27988 17.0301 9.76804L15.591 11.2072C15.1028 11.6953 14.3114 11.6953 13.8232 11.2072C13.335 10.719 13.335 9.92755 13.8232 9.43938L15.2623 8.00028Z" fill="#637381"/>
<path d="M7 15.75H9.5C10.1904 15.75 10.75 16.3096 10.75 17C10.75 17.6904 10.1904 18.25 9.5 18.25H7C6.30965 18.25 5.75 17.6904 5.75 17C5.75 16.3096 6.30965 15.75 7 15.75Z" fill="#637381"/>
</svg>
