<svg width="24" height="24" viewBox="0 0 24 24" fill="none" xmlns="http://www.w3.org/2000/svg">
<path opacity="0.4" d="M3.07102 6.0988C3.2055 4.8842 4.05865 4.1671 5.27817 4.09662C6.6879 4.01512 8.89135 4 12 4C15.1087 4 17.3121 4.01512 18.7218 4.09662C19.9414 4.1671 20.7945 4.8842 20.929 6.0988C20.9783 6.544 21 7.09375 21 7.7778V16.2222C21 16.9063 20.9783 17.456 20.929 17.9012C20.7945 19.1158 19.9414 19.8329 18.7218 19.9034C17.3121 19.9849 15.1087 20 12 20C8.89135 20 6.6879 19.9849 5.27817 19.9034C4.05865 19.8329 3.2055 19.1158 3.07102 17.9012C3.0217 17.456 3 16.9063 3 16.2222V7.7778C3 7.09375 3.0217 6.544 3.07102 6.0988Z" fill="#637381"/>
<path d="M4.51624 6.67086C4.89593 6.17469 5.60531 6.08024 6.10148 6.45993L10.487 9.8153C11.3812 10.4995 12.6188 10.4995 13.513 9.8153L17.8985 6.45993C18.3947 6.08024 19.1041 6.17469 19.4838 6.67086C19.8635 7.16702 19.769 7.87641 19.2729 8.2561L14.8873 11.6115C13.1808 12.9178 10.8192 12.9178 9.11266 11.6115L4.72717 8.2561C4.23101 7.87641 4.13655 7.16702 4.51624 6.67086Z" fill="#637381"/>
</svg>
