<svg width="24" height="24" viewBox="0 0 24 24" fill="none" xmlns="http://www.w3.org/2000/svg">
<path opacity="0.4" d="M6.22222 4.06305C7.67992 4.01885 9.593 4 12 4C14.407 4 16.3201 4.01885 17.7778 4.06305C19.5689 4.11735 20.8827 5.43112 20.937 7.22222C20.9788 8.60165 21 10.3223 21 12.5C21 14.6777 20.9788 16.3984 20.937 17.7778C20.8827 19.5689 19.5689 20.8827 17.7778 20.937C16.3201 20.9811 14.407 21 12 21C9.593 21 7.67992 20.9811 6.22222 20.937C4.43112 20.8827 3.11735 19.5689 3.06305 17.7778C3.02125 16.3984 3 14.6777 3 12.5C3 10.3223 3.02125 8.60165 3.06305 7.22222C3.11735 5.43112 4.43112 4.11735 6.22222 4.06305Z" fill="#637381"/>
<path d="M6.91634 6.5C8.13105 6.46325 9.79775 6.45 12 6.45C14.2023 6.45 15.869 6.46325 17.0837 6.5C17.9154 6.5252 18.4748 7.0846 18.5 7.91635C18.5342 9.04655 18.55 10.5072 18.55 12.5C18.55 13.5525 18.5456 14.4568 18.5363 15.2374C18.5254 16.1524 17.9305 16.7252 17.0155 16.7442C15.8219 16.769 14.1742 16.78 12 16.78C9.8258 16.78 8.17815 16.769 6.98455 16.7442C6.06955 16.7252 5.4746 16.1524 5.46375 15.2374C5.45445 14.4568 5.45 13.5525 5.45 12.5C5.45 10.5072 5.4658 9.04655 5.5 7.91635C5.5252 7.0846 6.0846 6.5252 6.91634 6.5Z" fill="#637381"/>
<path d="M9.9454 16.25H14.0546C14.4602 16.25 14.8175 16.5163 14.9336 16.905L15.5637 19.0148C15.6946 19.453 15.3664 19.894 14.909 19.894H9.091C8.63365 19.894 8.30535 19.453 8.43625 19.0148L9.0664 16.905C9.1825 16.5163 9.5398 16.25 9.9454 16.25Z" fill="#637381"/>
<path d="M7.90234 19.15H16.0977C16.7189 19.15 17.2227 19.6537 17.2227 20.275C17.2227 20.8963 16.7189 21.4 16.0977 21.4H7.90234C7.28102 21.4 6.77734 20.8963 6.77734 20.275C6.77734 19.6537 7.28102 19.15 7.90234 19.15Z" fill="#637381"/>
</svg>
