<svg width="24" height="24" viewBox="0 0 24 24" fill="none" xmlns="http://www.w3.org/2000/svg">
<path opacity="0.4" d="M6.22222 3.06305C7.67992 3.01885 9.593 3 12 3C14.407 3 16.3201 3.01885 17.7778 3.06305C19.5689 3.11735 20.8827 4.43112 20.937 6.22222C20.9788 7.60165 21 9.3223 21 11.5C21 13.6777 20.9788 15.3984 20.937 16.7778C20.8827 18.5689 19.5689 19.8827 17.7778 19.937C16.3201 19.9811 14.407 20 12 20C9.593 20 7.67992 19.9811 6.22222 19.937C4.43112 19.8827 3.11735 18.5689 3.06305 16.7778C3.02125 15.3984 3 13.6777 3 11.5C3 9.3223 3.02125 7.60165 3.06305 6.22222C3.11735 4.43112 4.43112 3.11735 6.22222 3.06305Z" fill="#637381"/>
<path d="M6.98275 5.5C8.18545 5.4653 9.8429 5.45 12 5.45C14.1571 5.45 15.8145 5.4653 17.0173 5.5C17.9012 5.5255 18.4745 6.0988 18.5 6.98275C18.5347 8.18545 18.55 9.4648 18.55 11.5C18.55 13.5352 18.5347 14.8145 18.5 16.0173C18.4745 16.9012 17.9012 17.4745 17.0173 17.5C15.8145 17.5347 14.1571 17.55 12 17.55C9.8429 17.55 8.18545 17.5347 6.98275 17.5C6.0988 17.4745 5.5255 16.9012 5.5 16.0173C5.4653 14.8145 5.45 13.5352 5.45 11.5C5.45 9.4648 5.4653 8.18545 5.5 6.98275C5.5255 6.0988 6.0988 5.5255 6.98275 5.5Z" fill="#637381"/>
<path opacity="0.4" d="M10.75 17.25H13.25V20.75H10.75V17.25Z" fill="#637381"/>
<path d="M8.25 20.25H15.75C16.4404 20.25 17 20.8096 17 21.5C17 22.1904 16.4404 22.75 15.75 22.75H8.25C7.55965 22.75 7 22.1904 7 21.5C7 20.8096 7.55965 20.25 8.25 20.25Z" fill="#637381"/>
</svg>
