<svg width="24" height="24" viewBox="0 0 24 24" fill="none" xmlns="http://www.w3.org/2000/svg">
<path opacity="0.4" d="M7.44445 3.06305C8.6167 3.01875 10.1199 3 12 3C13.8801 3 15.3833 3.01875 16.5556 3.06305C19.0289 3.1565 20.8435 4.9711 20.937 7.44445C20.9782 8.53505 21 9.88345 21 11.5C21 13.1166 20.9782 14.465 20.937 15.5556C20.8435 18.0289 19.0289 19.8435 16.5556 19.937C15.3833 19.9812 13.8801 20 12 20C10.1199 20 8.6167 19.9812 7.44445 19.937C4.9711 19.8435 3.1565 18.0289 3.06305 15.5556C3.02185 14.465 3 13.1166 3 11.5C3 9.88345 3.02185 8.53505 3.06305 7.44445C3.1565 4.9711 4.9711 3.1565 7.44445 3.06305Z" fill="#637381"/>
<path d="M11.75 6.42135C9.11955 6.72015 7.075 8.9542 7.075 11.6646C7.075 14.5793 9.43765 16.9419 12.3523 16.9419C13.3759 16.9419 14.3315 16.6506 15.1408 16.1462L12.1161 13.1215C11.8817 12.8871 11.75 12.5692 11.75 12.2377V6.42135Z" fill="#637381"/>
<path d="M13.25 6.42135V11.7198L16.9944 15.4642C17.3965 14.6772 17.625 13.785 17.625 12.8385C17.625 9.92395 15.7447 6.72015 13.25 6.42135Z" fill="#637381"/>
<path d="M17.775 7.35H19.175C19.7963 7.35 20.3 7.8537 20.3 8.475C20.3 9.0963 19.7963 9.6 19.175 9.6H17.775C17.1537 9.6 16.65 9.0963 16.65 8.475C16.65 7.8537 17.1537 7.35 17.775 7.35Z" fill="#637381"/>
<path d="M17.775 11.15H19.175C19.7963 11.15 20.3 11.6537 20.3 12.275C20.3 12.8963 19.7963 13.4 19.175 13.4H17.775C17.1537 13.4 16.65 12.8963 16.65 12.275C16.65 11.6537 17.1537 11.15 17.775 11.15Z" fill="#637381"/>
<path d="M17.775 14.95H19.175C19.7963 14.95 20.3 15.4537 20.3 16.075C20.3 16.6963 19.7963 17.2 19.175 17.2H17.775C17.1537 17.2 16.65 16.6963 16.65 16.075C16.65 15.4537 17.1537 14.95 17.775 14.95Z" fill="#637381"/>
<path d="M10.75 18.75H13.25V21.25H10.75V18.75Z" fill="#637381"/>
<path d="M7.75 20.75H16.25C16.9404 20.75 17.5 21.3096 17.5 22C17.5 22.6904 16.9404 23.25 16.25 23.25H7.75C7.05965 23.25 6.5 22.6904 6.5 22C6.5 21.3096 7.05965 20.75 7.75 20.75Z" fill="#637381"/>
</svg>
